<!-- icon666.com - MILLIONS vector ICONS FREE --><svg id="Capa_1" enable-background="new 0 0 512 512" viewBox="0 0 512 512" xmlns="http://www.w3.org/2000/svg"><g><g><g><g><g><g id="XMLID_872_"><g id="XMLID_873_"><g id="XMLID_874_"><g id="XMLID_875_"><g id="XMLID_876_"><g id="XMLID_877_"><g id="XMLID_878_"><g id="XMLID_879_"><g id="XMLID_1108_"><g id="XMLID_1109_"><g id="XMLID_1110_"><g id="XMLID_1111_"><g id="XMLID_1112_"><g id="XMLID_1113_"><g id="XMLID_1114_"><circle cx="256" cy="256" fill="#ffec66" r="256"></circle></g></g></g></g></g></g></g></g></g></g></g></g></g></g></g></g></g></g></g><path d="m512 256c0-23.722-3.227-46.691-9.265-68.491l-111.524-111.523-261.674 369.302 57.243 57.244c22.017 6.169 45.233 9.468 69.22 9.468 141.385 0 256-114.615 256-256z" fill="#ffc522"></path><path d="m256 436.014h-123.886v-360.029h123.886l60.479 175.76z" fill="#fff"></path><path d="m256 75.99h123.89v360.02h-123.89z" fill="#ddd"></path><g><path d="m256 256.769h-16.418v-55.186h16.418l8.667 29.13z" fill="#812c96"></path><path d="m256 201.58h16.413v55.19h-16.413z" fill="#471f5e"></path><path d="m256 158.552s-37.629 27.128 0 43.032c13.783-14.527 0-43.032 0-43.032z" fill="#ffc840"></path><path d="m256 201.58v-43.028s37.624 27.128 0 43.028z" fill="#f29500"></path></g><path d="m256 307.003h-50.306v-35.504c0-14.086 11.419-25.505 25.505-25.505h24.801l17.584 10.777c14.086-.001-17.584 50.232-17.584 50.232z" fill="#3feaea"></path><path d="m306.31 271.5v35.5h-50.31v-61.01h24.8c14.09 0 25.51 11.42 25.51 25.51z" fill="#17adc6"></path><path d="m164 87.18h18.53l16.59 31.88h56.88l16.41-24.777-16.41-40.103h-92c-29.65 0-53.77 24.12-53.77 53.77v296.1c0 29.65 24.12 53.77 53.77 53.77h92l7.395-18.129-7.395-14.871h-92c-11.45 0-20.77-9.31-20.77-20.77v-296.1c0-11.46 9.32-20.77 20.77-20.77z" fill="#812c96"></path><path d="m348 54.18h-92v64.88h56.88l16.59-31.88h18.53c11.45 0 20.77 9.31 20.77 20.77v296.1c0 11.46-9.32 20.77-20.77 20.77h-92v33h92c29.65 0 53.77-24.12 53.77-53.77v-296.1c0-29.65-24.12-53.77-53.77-53.77z" fill="#471f5e"></path><path d="m256 385.723h-70.108v-58.04c0-14.086 11.419-25.505 25.505-25.505h44.603c14.086 0 40.531 27.685 40.531 41.771z" fill="#fc75ac"></path><path d="m326.11 327.68v58.04h-70.11v-83.54h44.6c1.96 0 3.88.22 5.71.65 11.34 2.59 19.8 12.73 19.8 24.85z" fill="#d8418d"></path></g></svg>